# Object Export From Tinkercad Server 2015

mtllib obj.mtl

o obj_0
v 16.701 		5.385 		0
v 17.088 		5.731 		0
v 17.919 		6.335 		0
v 19.091 		7.131 		0
v 0.497 		-4.769 		0
v 0.081 		-5.513 		0
v 20.782 		8.136 		0
v 21.66 		8.56 		0
v 0.911 		-4.109 		0
v 1.37 		-3.496 		0
v 22.364 		8.825 		0
v -7.073 		6.15 		0.35
v -7.342 		6.407 		0.35
v -7.53 		6.701 		0.35
v 23 		9 		0
v 2.153 		-2.686 		0
v -8.194 		8.953 		0
v 10.343 		-0.193 		0
v -8.194 		8.953 		0.35
v 8.76 		-0.363 		0
v 11.98 		-0.147 		0
v -16.336 		0.955 		0
v -7.793 		7.405 		0.35
v -16.336 		0.955 		0.35
v 14.241 		-0.255 		0
v -8.003 		8.14 		0.35
v 15.379 		0.346 		0
v 3.035 		-2.091 		0
v 15.558 		-0.363 		0
v 4.263 		-1.517 		0
v 15.2 		1.654 		0
v -8.302 		-0.672 		0.35
v 5.754 		-1.011 		0
v -9.84 		-0.409 		0.35
v -9.84 		-0.409 		0
v 15.256 		1.001 		0
v -8.302 		-0.672 		0
v -4.882 		5.261 		0.35
v 15.233 		2.565 		0
v 7.222 		-0.625 		0
v -11.423 		-0.239 		0.35
v -11.423 		-0.239 		0
v 15.415 		3.31 		0
v -5.589 		5.447 		0.35
v 15.786 		4.123 		0
v -13.06 		-0.193 		0.35
v -13.06 		-0.193 		0
v 16.345 		4.967 		0
v -15.321 		-0.301 		0.35
v -15.321 		-0.301 		0
v -1.949 		7.997 		0
v -1.519 		6.701 		0
v -2.163 		5.549 		0
v -6.834 		-1.058 		0.35
v -2.202 		5.327 		0
v -5.343 		-1.564 		0.35
v -2.296 		5.194 		0
v -16.313 		2.519 		0
v -4.115 		-2.138 		0.35
v -16.313 		2.519 		0.35
v 19.091 		7.131 		0.35
v 17.919 		6.335 		0.35
v -3.233 		-2.733 		0.35
v -2.557 		5.113 		0
v -16.28 		1.607 		0
v -2.45 		-3.543 		0.35
v -16.28 		1.607 		0.35
v -1.991 		-4.156 		0.35
v -3.094 		5.045 		0
v 7.114 		9 		0
v -1.577 		-4.816 		0.35
v -24.08 		8.953 		0
v 6.923 		8.187 		0
v -24.08 		8.953 		0.35
v -1.161 		-5.56 		0.35
v 6.713 		7.452 		0
v -3.658 		5.01 		0
v 6.45 		6.748 		0
v -4.037 		5.045 		0
v -0.517 		-7 		0.35
v 6.262 		6.454 		0
v 5.993 		6.197 		0
v -6.373 		5.738 		0
v -5.589 		5.447 		0
v 5.293 		5.784 		0
v -7.073 		6.15 		0
v -23.444 		8.778 		0.35
v 4.509 		5.494 		0
v -23.444 		8.778 		0
v -7.342 		6.407 		0
v -22.74 		8.513 		0.35
v -22.74 		8.513 		0
v -7.53 		6.701 		0
v -21.862 		8.089 		0.35
v -7.793 		7.405 		0
v -21.862 		8.089 		0
v 0.439 		6.748 		0
v 0.869 		8.044 		0
v -20.171 		7.084 		0.35
v -8.003 		8.14 		0
v 20.782 		8.136 		0.35
v -20.171 		7.084 		0
v -18.999 		6.289 		0.35
v -18.999 		6.289 		0
v -4.882 		5.261 		0
v -18.168 		5.684 		0
v -18.168 		5.684 		0.35
v -17.781 		5.338 		0
v 1.216 		5.241 		0
v -17.781 		5.338 		0.35
v 1.477 		5.16 		0
v -4.5979 		0 		0
v 1.122 		5.373 		0
v -6.834 		-1.058 		0
v 1.083 		5.595 		0
v -17.425 		4.92 		0
v -17.425 		4.92 		0.35
v -5.343 		-1.564 		0
v -4.115 		-2.138 		0
v -16.866 		4.076 		0
v -3.233 		-2.733 		0
v -16.866 		4.076 		0.35
v 3.802 		5.307 		0
v -2.45 		-3.543 		0
v -16.495 		3.264 		0.35
v -1.991 		-4.156 		0
v -16.495 		3.264 		0
v -1.577 		-4.816 		0
v -16.459 		0.299 		0.35
v -1.161 		-5.56 		0
v -16.638 		-0.409 		0.35
v 16.701 		5.385 		0.35
v -0.517 		-7 		0
v -16.459 		0.299 		0
v 17.088 		5.731 		0.35
v -16.638 		-0.409 		0
v 21.66 		8.56 		0.35
v 22.364 		8.825 		0.35
v 7.114 		9 		0.35
v 23 		9 		0.35
v 0.911 		-4.109 		0.35
v 0.497 		-4.769 		0.35
v 10.343 		-0.193 		0.35
v 8.76 		-0.363 		0.35
v 6.923 		8.187 		0.35
v 11.98 		-0.147 		0.35
v 6.713 		7.452 		0.35
v 1.37 		-3.496 		0.35
v 14.241 		-0.255 		0.35
v 6.45 		6.748 		0.35
v 2.153 		-2.686 		0.35
v 15.558 		-0.363 		0.35
v 6.262 		6.454 		0.35
v 3.035 		-2.091 		0.35
v 15.379 		0.346 		0.35
v 5.993 		6.197 		0.35
v 2.957 		5.092 		0
v 4.263 		-1.517 		0.35
v 2.578 		5.056 		0
v 2.014 		5.091 		0
v 5.293 		5.784 		0.35
v 5.754 		-1.011 		0.35
v 4.509 		5.494 		0.35
v 15.2 		1.654 		0.35
v 15.256 		1.001 		0.35
v 7.222 		-0.625 		0.35
v 15.233 		2.565 		0.35
v 15.415 		3.31 		0.35
v 0.869 		8.044 		0.35
v 0.439 		6.748 		0.35
v 15.786 		4.123 		0.35
v 1.477 		5.16 		0.35
v 1.216 		5.241 		0.35
v -1.949 		7.997 		0.35
v -1.519 		6.701 		0.35
v 16.345 		4.967 		0.35
v 1.122 		5.373 		0.35
v 1.083 		5.595 		0.35
v 3.802 		5.307 		0.35
v -2.163 		5.549 		0.35
v 2.957 		5.092 		0.35
v 2.578 		5.056 		0.35
v -2.202 		5.327 		0.35
v 2.014 		5.091 		0.35
v -2.296 		5.194 		0.35
v -2.557 		5.113 		0.35
v -3.094 		5.045 		0.35
v 0.081 		-5.513 		0.35
v -3.658 		5.01 		0.35
v -4.037 		5.045 		0.35
v -6.373 		5.738 		0.35
# 191 vertices

g group_0_10793013

usemtl color_10793013
s 0

f 1 	70 	2
f 3 	2 	70
f 4 	3 	70
f 7 	4 	70
f 8 	7 	70
f 11 	8 	70
f 13 	41 	12
f 130 	128 	6
f 128 	126 	5
f 14 	41 	13
f 15 	11 	70
f 23 	125 	14
f 10 	9 	69
f 39 	78 	43
f 69 	64 	10
f 29 	25 	27
f 36 	27 	25
f 18 	78 	21
f 26 	122 	23
f 32 	34 	35
f 32 	35 	37
f 16 	10 	64
f 64 	57 	16
f 28 	16 	57
f 35 	34 	41
f 35 	41 	42
f 30 	28 	57
f 42 	41 	46
f 42 	46 	47
f 32 	54 	44
f 44 	191 	32
f 47 	46 	49
f 47 	49 	50
f 63 	66 	186
f 71 	142 	68
f 52 	53 	51
f 45 	73 	48
f 48 	70 	1
f 54 	32 	37
f 187 	189 	59
f 50 	22 	47
f 52 	115 	53
f 186 	187 	59
f 61 	62 	3
f 61 	3 	4
f 127 	58 	60
f 43 	76 	45
f 39 	31 	78
f 21 	78 	31
f 36 	21 	31
f 25 	21 	36
f 20 	82 	18
f 40 	85 	20
f 60 	58 	65
f 60 	65 	67
f 63 	186 	59
f 22 	24 	65
f 67 	65 	24
f 68 	141 	66
f 19 	17 	74
f 70 	48 	73
f 72 	74 	17
f 76 	43 	78
f 73 	45 	76
f 80 	188 	75
f 75 	188 	71
f 148 	66 	141
f 186 	66 	148
f 148 	151 	186
f 158 	182 	154
f 77 	112 	79
f 78 	18 	81
f 87 	74 	72
f 87 	72 	89
f 82 	20 	85
f 81 	18 	82
f 91 	87 	89
f 91 	89 	92
f 41 	14 	46
f 123 	88 	33
f 40 	33 	88
f 88 	85 	40
f 94 	91 	92
f 94 	92 	96
f 49 	46 	24
f 58 	127 	93
f 46 	14 	67
f 125 	23 	122
f 99 	94 	96
f 99 	96 	102
f 103 	99 	102
f 103 	102 	104
f 105 	79 	112
f 24 	46 	67
f 60 	67 	14
f 32 	191 	34
f 34 	12 	41
f 19 	117 	26
f 103 	104 	106
f 103 	106 	107
f 100 	95 	120
f 120 	116 	100
f 91 	19 	87
f 93 	90 	58
f 112 	114 	84
f 105 	112 	84
f 35 	42 	86
f 94 	19 	91
f 74 	87 	19
f 107 	106 	108
f 107 	108 	110
f 99 	19 	94
f 124 	121 	69
f 114 	37 	84
f 69 	112 	77
f 103 	19 	99
f 110 	108 	116
f 110 	116 	117
f 55 	113 	109
f 107 	19 	103
f 37 	35 	83
f 110 	19 	107
f 83 	84 	37
f 117 	19 	110
f 98 	115 	97
f 55 	53 	113
f 115 	113 	53
f 97 	115 	52
f 117 	116 	120
f 117 	120 	122
f 118 	114 	112
f 119 	118 	112
f 69 	121 	112
f 119 	112 	121
f 122 	120 	127
f 122 	127 	125
f 60 	14 	125
f 122 	26 	117
f 47 	65 	90
f 58 	90 	65
f 22 	65 	47
f 42 	47 	90
f 90 	86 	42
f 127 	120 	95
f 95 	93 	127
f 86 	83 	35
f 69 	9 	124
f 24 	129 	49
f 125 	127 	60
f 131 	49 	129
f 72 	17 	89
f 92 	89 	17
f 132 	176 	48
f 132 	48 	1
f 129 	24 	134
f 22 	134 	24
f 135 	132 	1
f 135 	1 	2
f 9 	5 	126
f 126 	124 	9
f 5 	6 	128
f 133 	130 	6
f 96 	92 	17
f 129 	134 	136
f 129 	136 	131
f 62 	135 	2
f 62 	2 	3
f 102 	96 	17
f 136 	50 	131
f 49 	131 	50
f 101 	61 	4
f 101 	4 	7
f 104 	102 	17
f 106 	104 	17
f 137 	101 	7
f 137 	7 	8
f 108 	106 	17
f 138 	137 	8
f 138 	8 	11
f 138 	11 	15
f 138 	15 	140
f 116 	108 	17
f 141 	142 	5
f 141 	5 	9
f 143 	144 	20
f 143 	20 	18
f 17 	100 	116
f 147 	150 	168
f 146 	143 	18
f 146 	18 	21
f 148 	141 	9
f 148 	9 	10
f 50 	136 	134
f 22 	50 	134
f 167 	168 	150
f 149 	146 	21
f 149 	21 	25
f 151 	148 	10
f 151 	10 	16
f 70 	139 	15
f 140 	15 	139
f 153 	167 	150
f 168 	171 	147
f 29 	152 	149
f 29 	149 	25
f 154 	151 	16
f 154 	16 	28
f 144 	143 	156
f 27 	155 	152
f 27 	152 	29
f 158 	154 	28
f 158 	28 	30
f 161 	163 	166
f 157 	123 	33
f 20 	144 	40
f 162 	158 	30
f 162 	30 	33
f 162 	166 	163
f 164 	165 	36
f 164 	36 	31
f 166 	162 	33
f 166 	33 	40
f 160 	159 	30
f 111 	160 	30
f 159 	157 	30
f 33 	30 	157
f 109 	111 	30
f 55 	109 	30
f 167 	164 	31
f 167 	31 	39
f 179 	162 	163
f 144 	166 	40
f 57 	55 	30
f 168 	167 	39
f 168 	39 	43
f 171 	168 	43
f 171 	43 	45
f 51 	174 	175
f 51 	175 	52
f 176 	171 	45
f 176 	45 	48
f 180 	174 	51
f 170 	175 	178
f 165 	155 	36
f 27 	36 	155
f 169 	170 	178
f 178 	180 	177
f 183 	173 	177
f 175 	170 	52
f 97 	52 	170
f 145 	139 	73
f 70 	73 	139
f 62 	139 	135
f 51 	53 	180
f 145 	73 	76
f 145 	76 	147
f 181 	162 	179
f 61 	139 	62
f 182 	158 	181
f 180 	53 	55
f 180 	55 	183
f 147 	76 	78
f 147 	78 	150
f 183 	55 	57
f 183 	57 	185
f 184 	154 	182
f 166 	144 	161
f 137 	139 	101
f 101 	139 	61
f 150 	78 	81
f 150 	81 	153
f 139 	137 	138
f 139 	138 	140
f 185 	57 	64
f 185 	64 	186
f 153 	81 	82
f 153 	82 	156
f 172 	173 	154
f 186 	151 	185
f 173 	183 	154
f 172 	154 	184
f 156 	82 	85
f 156 	85 	161
f 149 	165 	146
f 162 	181 	158
f 186 	64 	69
f 186 	69 	187
f 161 	85 	88
f 161 	88 	163
f 152 	155 	149
f 187 	69 	77
f 187 	77 	189
f 163 	88 	179
f 142 	71 	188
f 189 	77 	79
f 189 	79 	190
f 141 	68 	142
f 190 	79 	38
f 98 	97 	170
f 98 	170 	169
f 176 	132 	139
f 84 	83 	191
f 84 	191 	44
f 154 	185 	151
f 191 	83 	86
f 191 	86 	12
f 111 	109 	173
f 111 	173 	172
f 139 	145 	176
f 132 	135 	139
f 12 	86 	90
f 12 	90 	13
f 177 	173 	109
f 177 	109 	113
f 14 	13 	90
f 14 	90 	93
f 156 	161 	144
f 153 	156 	143
f 143 	146 	153
f 146 	164 	153
f 155 	165 	149
f 164 	146 	165
f 167 	153 	164
f 145 	147 	171
f 171 	176 	145
f 178 	177 	113
f 178 	113 	115
f 23 	14 	93
f 23 	93 	95
f 175 	174 	180
f 169 	178 	115
f 169 	115 	98
f 26 	23 	95
f 26 	95 	100
f 183 	177 	180
f 88 	123 	179
f 180 	178 	175
f 179 	123 	157
f 179 	157 	181
f 79 	105 	38
f 189 	190 	56
f 185 	154 	183
f 54 	56 	190
f 181 	157 	159
f 181 	159 	182
f 38 	105 	84
f 38 	84 	44
f 190 	38 	54
f 38 	44 	54
f 56 	59 	189
f 182 	159 	160
f 182 	160 	184
f 54 	37 	114
f 12 	34 	191
f 56 	54 	114
f 56 	114 	118
f 184 	160 	111
f 184 	111 	172
f 59 	56 	118
f 59 	118 	119
f 188 	80 	133
f 188 	133 	6
f 63 	59 	119
f 63 	119 	121
f 142 	188 	6
f 142 	6 	5
f 63 	121 	124
f 63 	124 	66
f 66 	124 	126
f 66 	126 	68
f 68 	126 	128
f 68 	128 	71
f 71 	128 	130
f 71 	130 	75
f 75 	130 	133
f 75 	133 	80
f 100 	17 	19
f 26 	100 	19
# 378 faces

 #end of obj_0

